<?xml version="1.0" encoding="UTF-8"?><svg xmlns="http://www.w3.org/2000/svg" viewBox="0 0 400 400"><defs><style>.b{fill:#fff;}.c{isolation:isolate;}.d{fill:#e6e6e6;}.e{fill:#546885;}.f,.g,.h,.i{mix-blend-mode:multiply;}.f,.j{fill:#d1d3d4;}.k{fill:#434444;}.g{fill:#f1f2f2;}.l{fill:#b2bdcf;}.m{fill:#c13938;}.i{fill:#e6e7e8;}.n{fill:#414042;}</style></defs><g class="c"><g id="a"><rect class="d" x="-1.61" y="-1.95" width="403.21" height="403.89"/><g><circle class="k" cx="200" cy="200" r="153.87"/><g class="h"><g><path class="j" d="M298.66,138.51c.77-2.9,1.19-5.94,1.19-9.08,0-2.92-.36-5.75-1.03-8.46l-6.43,.71c-.79-3.28-2.06-6.38-3.74-9.21l5.11-4.08c-1.5-2.59-3.36-5.03-5.58-7.25-.86-.86-1.76-1.68-2.69-2.43-.24-.2-.49-.39-.74-.59-1.06-.82-2.15-1.56-3.28-2.24l-4.07,5.1c-.32-.2-.65-.39-.98-.58-.37-.22-.74-.42-1.13-.62-2.21-1.16-4.56-2.08-7.02-2.72l.72-6.48c-2.89-.77-5.94-1.18-9.07-1.18-2.91,0-5.75,.35-8.46,1.03l.72,6.45c-3.29,.77-6.39,2.03-9.23,3.7l-4.06-5.09c-2.59,1.5-5.04,3.36-7.25,5.57-2.06,2.06-3.81,4.32-5.25,6.71l5.06,4.04c-1.74,2.8-3.08,5.88-3.93,9.15l-6.44-.72c-.77,2.9-1.19,5.94-1.19,9.07,0,2.92,.36,5.75,1.03,8.46l6.41-.71c.78,3.29,2.05,6.4,3.72,9.24l-5.06,4.04c1.5,2.6,3.36,5.04,5.58,7.25,2.06,2.06,4.32,3.81,6.71,5.26l4.03-5.03c2.81,1.75,5.88,3.09,9.16,3.95l-.71,6.39c2.89,.77,5.93,1.19,9.07,1.19,2.91,0,5.74-.36,8.46-1.03l-.71-6.36c3.3-.78,6.42-2.05,9.27-3.73l4.02,5.02c2.59-1.5,5.04-3.36,7.25-5.57,2.06-2.06,3.81-4.32,5.25-6.71l-5.02-4.01c1.74-2.81,3.07-5.89,3.91-9.18l6.42,.72Zm-18.26-8.41c-.34,10.76-9.1,19.52-19.86,19.86-11.87,.38-21.59-9.33-21.21-21.21,.34-10.76,9.1-19.52,19.86-19.86,11.88-.38,21.59,9.33,21.21,21.21Z"/><path class="j" d="M259.86,154.9c-6.82,0-13.19-2.64-18.03-7.47-5.04-5.04-7.69-11.74-7.46-18.88,.43-13.41,11.26-24.24,24.67-24.67,7.13-.23,13.84,2.42,18.88,7.46,5.04,5.04,7.69,11.74,7.46,18.88h0c-.43,13.4-11.26,24.24-24.67,24.67-.28,0-.57,.01-.85,.01Zm.03-50.58c-.28,0-.55,0-.83,.01-13.17,.42-23.81,11.06-24.23,24.23-.22,7.01,2.38,13.59,7.33,18.54,4.95,4.95,11.54,7.55,18.55,7.33,13.17-.42,23.81-11.06,24.23-24.23,.22-7.01-2.38-13.6-7.33-18.55-4.75-4.75-11.01-7.34-17.71-7.34Z"/></g></g><g><g><path class="f" d="M272.22,133.32h-2.17v-9.68c0-.62-.17-1.2-.45-1.7-.59-1.03-1.7-1.73-2.97-1.73h-1.71c-1.89,0-3.43,1.54-3.43,3.43v9.68h-18.98v-9.68c0-.63-.17-1.22-.47-1.73-.59-1.01-1.69-1.7-2.95-1.7h-1.71c-1.89,0-3.43,1.54-3.43,3.43v9.68h-18.98v-9.68c0-.63-.17-1.22-.47-1.73-.59-1.01-1.69-1.7-2.95-1.7h-1.71c-1.89,0-3.43,1.54-3.43,3.43v9.68h-18.98v-9.68c0-.61-.16-1.19-.45-1.69-.59-1.04-1.7-1.74-2.98-1.74h-1.71c-1.89,0-3.43,1.54-3.43,3.43v9.68h-18.98v-9.68c0-.62-.17-1.2-.45-1.7-.59-1.03-1.7-1.73-2.97-1.73h-1.71c-1.89,0-3.43,1.54-3.43,3.43v9.68h-2.17c-9.2,0-16.65,7.45-16.65,16.65v120.11c0,9.2,7.45,16.65,16.65,16.65h123.11c9.2,0,16.65-7.45,16.65-16.65v-120.11c0-9.2-7.45-16.65-16.65-16.65Z"/><rect class="j" x="126.48" y="130.32" width="156.41" height="150.42" rx="16.65" ry="16.65"/><rect class="b" x="126.48" y="127.33" width="156.41" height="150.42" rx="16.65" ry="16.65"/><path class="m" d="M282.88,143.98v26.99H126.48v-26.99c0-9.2,7.45-16.65,16.65-16.65h123.11c9.2,0,16.65,7.45,16.65,16.65Z"/><g><circle class="n" cx="149.58" cy="136.89" r="4.71" transform="translate(-19.9 25.59) rotate(-9.17)"/><g><rect class="e" x="145.3" y="114.22" width="8.57" height="25.75" rx="3.43" ry="3.43"/><path class="g" d="M153.86,117.64v18.89c0,1.89-1.53,3.43-3.42,3.43h-.86v-25.75h.86c1.89,0,3.42,1.53,3.42,3.43Z"/></g></g><g><circle class="n" cx="177.13" cy="136.89" r="4.71" transform="translate(-12.59 18.06) rotate(-5.64)"/><g><rect class="e" x="172.85" y="114.22" width="8.57" height="25.75" rx="3.43" ry="3.43"/><path class="g" d="M181.41,117.64v18.89c0,1.89-1.53,3.43-3.42,3.43h-.86v-25.75h.86c1.89,0,3.42,1.53,3.42,3.43Z"/></g></g><g><circle class="n" cx="204.68" cy="136.89" r="4.71" transform="translate(-15.14 25.93) rotate(-6.99)"/><g><rect class="e" x="200.4" y="114.22" width="8.57" height="25.75" rx="3.43" ry="3.43"/><path class="g" d="M208.96,117.64v18.89c0,1.89-1.53,3.43-3.42,3.43h-.86v-25.75h.86c1.89,0,3.42,1.53,3.42,3.43Z"/></g></g><g><circle class="n" cx="232.23" cy="136.89" r="4.71" transform="translate(-37.31 132.67) rotate(-29.62)"/><g><rect class="e" x="227.95" y="114.22" width="8.57" height="25.75" rx="3.43" ry="3.43"/><path class="g" d="M236.51,117.64v18.89c0,1.89-1.53,3.43-3.42,3.43h-.86v-25.75h.86c1.89,0,3.42,1.53,3.42,3.43Z"/></g></g><g><circle class="n" cx="259.78" cy="136.89" r="4.71" transform="translate(-10.76 22.74) rotate(-4.91)"/><g><rect class="e" x="255.5" y="114.22" width="8.57" height="25.75" rx="3.43" ry="3.43"/><path class="g" d="M264.06,117.64v18.89c0,1.89-1.53,3.43-3.42,3.43h-.86v-25.75h.86c1.89,0,3.42,1.53,3.42,3.43Z"/></g></g><rect class="i" x="126.48" y="168.35" width="156.41" height="2.62"/><rect class="i" x="126.48" y="170.97" width="156.41" height="2.62"/><rect class="l" x="141.75" y="186.15" width="15.67" height="15.67" rx="4.43" ry="4.43"/><rect class="l" x="169.3" y="186.15" width="15.67" height="15.67" rx="4.43" ry="4.43"/><rect class="l" x="196.85" y="186.15" width="15.67" height="15.67" rx="4.43" ry="4.43"/><rect class="l" x="224.4" y="186.15" width="15.67" height="15.67" rx="4.43" ry="4.43"/><rect class="l" x="251.95" y="186.15" width="15.67" height="15.67" rx="4.43" ry="4.43"/><rect class="l" x="141.75" y="214" width="15.67" height="15.67" rx="4.43" ry="4.43"/><rect class="l" x="169.3" y="214" width="15.67" height="15.67" rx="4.43" ry="4.43"/><rect class="l" x="196.85" y="214" width="15.67" height="15.67" rx="4.43" ry="4.43"/><rect class="l" x="224.4" y="214" width="15.67" height="15.67" rx="4.43" ry="4.43"/><rect class="l" x="251.95" y="214" width="15.67" height="15.67" rx="4.43" ry="4.43"/><rect class="l" x="141.75" y="241.86" width="15.67" height="15.67" rx="4.43" ry="4.43"/><rect class="m" x="169.3" y="241.86" width="15.67" height="15.67" rx="4.43" ry="4.43"/><rect class="l" x="196.85" y="241.86" width="15.67" height="15.67" rx="4.43" ry="4.43"/><rect class="l" x="224.4" y="241.86" width="15.67" height="15.67" rx="4.43" ry="4.43"/><rect class="l" x="251.95" y="241.86" width="15.67" height="15.67" rx="4.43" ry="4.43"/><g><path class="f" d="M169.32,240.21l-3.59-15.6c2.33-4.35,3.59-9.24,3.59-14.22,0-16.6-13.51-30.11-30.11-30.11s-30.13,13.51-30.13,30.11,13.52,30.13,30.13,30.13c4.48,0,8.93-1.05,12.94-2.96l14.93,4.72c1.29,.41,2.54-.74,2.23-2.06Z"/><path class="m" d="M166.92,237.82l-3.59-15.6c2.33-4.35,3.59-9.24,3.59-14.22,0-16.6-13.51-30.11-30.11-30.11s-30.13,13.51-30.13,30.11,13.52,30.13,30.13,30.13c4.48,0,8.93-1.05,12.94-2.96l14.93,4.72c1.29,.41,2.54-.74,2.23-2.06Z"/></g></g><path class="b" d="M133.25,219.62c-4.46-4.45-8.88-8.88-13.36-13.35,1.21-1.59,2.62-2.98,4.26-4.26l9.14,9.29,16.7-16.55c1.4,1.36,2.87,2.6,4.01,4.19-6.93,6.91-13.84,13.79-20.75,20.68Z"/></g></g></g></g></svg>